<svg width="40" height="40" viewBox="0 0 40 40" fill="none" xmlns="http://www.w3.org/2000/svg">
<g clip-path="url(#clip0_456_6317)">
<path d="M9.51276 30.4869H5.3699C4.33424 30.4006 3.36882 29.9283 2.6651 29.1634C1.96139 28.3988 1.5708 27.3975 1.5708 26.3583C1.5708 25.319 1.96139 24.3177 2.6651 23.553C3.36882 22.7882 4.33424 22.3159 5.3699 22.2297H11.9413L16.1699 18.0011L4.5699 10.8583C3.67687 10.3062 3.02676 9.43567 2.75096 8.42267C2.47516 7.40964 2.59426 6.3297 3.08419 5.40113C3.30047 4.8697 3.62333 4.38821 4.03287 3.98641C4.44239 3.58458 4.9299 3.27093 5.46536 3.06478C6.00079 2.85864 6.57276 2.76438 7.14602 2.78783C7.7193 2.81128 8.28167 2.95193 8.79847 3.20113L23.9413 10.2011L31.2556 2.80112C32.0436 2.01305 33.1125 1.57031 34.2271 1.57031C35.3416 1.57031 36.4105 2.01305 37.1985 2.80112C37.9865 3.58918 38.4294 4.65804 38.4294 5.77256C38.4294 6.88704 37.9865 7.9559 37.1985 8.74398L29.7985 16.0583L36.7985 31.344C37.0288 31.8529 37.1545 32.4032 37.1679 32.9617C37.1816 33.52 37.0831 34.0757 36.8776 34.5954C36.6725 35.1149 36.3651 35.588 35.9736 35.9866C35.5819 36.3852 35.1145 36.7012 34.5985 36.9154C33.6699 37.4054 32.5899 37.5243 31.5771 37.2486C30.5639 36.9729 29.6934 36.3226 29.1414 35.4297L21.9985 23.8297L17.7699 28.0583V34.6297C17.6837 35.6654 17.2114 36.6309 16.4466 37.3346C15.6819 38.0383 14.6806 38.4289 13.6413 38.4289C12.6021 38.4289 11.6008 38.0383 10.8361 37.3346C10.0713 36.6309 9.59899 35.6654 9.51276 34.6297V30.4869Z" stroke="#1F2143" stroke-width="2" stroke-linecap="round" stroke-linejoin="round"/>
</g>
<defs>
<clipPath id="clip0_456_6317">
<rect width="40" height="40" fill="white"/>
</clipPath>
</defs>
</svg>
