<svg width="40" height="40" viewBox="0 0 40 40" fill="none" xmlns="http://www.w3.org/2000/svg">
<path d="M32.8573 11.4277H7.143C3.98708 11.4277 1.42871 13.9861 1.42871 17.142V32.8563C1.42871 36.0123 3.98708 38.5706 7.143 38.5706H32.8573C36.0133 38.5706 38.5716 36.0123 38.5716 32.8563V17.142C38.5716 13.9861 36.0133 11.4277 32.8573 11.4277Z" stroke="black" stroke-width="2" stroke-linecap="round" stroke-linejoin="round"/>
<path d="M11.4287 38.5706V11.4277" stroke="black" stroke-width="2" stroke-linecap="round" stroke-linejoin="round"/>
<path d="M28.5718 38.5706V11.4277" stroke="black" stroke-width="2" stroke-linecap="round" stroke-linejoin="round"/>
<path d="M12.8574 11.428C12.8574 9.53361 13.61 7.71678 14.9495 6.37724C16.2891 5.0377 18.1059 4.28516 20.0003 4.28516C21.8947 4.28516 23.7115 5.0377 25.051 6.37724C26.3906 7.71678 27.1431 9.53361 27.1431 11.428" stroke="black" stroke-width="2" stroke-linecap="round" stroke-linejoin="round"/>
</svg>
