<svg width="175" height="111" viewBox="0 0 175 111" fill="none" xmlns="http://www.w3.org/2000/svg">
<path d="M104.888 46.4034C110.602 54.4504 106.231 63.6674 104.117 67.2629C103.807 67.7657 103.39 68.1949 102.897 68.5203C102.403 68.8454 101.844 69.0592 101.259 69.146C97.1166 69.8594 86.8023 70.6586 81.2594 62.6114C75.8023 55.0211 76.0308 41.6666 76.5166 35.3032C76.5357 34.8291 76.6673 34.3663 76.9006 33.9529C77.1338 33.5396 77.462 33.1875 77.8582 32.9255C78.2543 32.6636 78.707 32.4994 79.1792 32.4465C79.6513 32.3935 80.1292 32.4533 80.5737 32.6208C86.7166 34.39 99.5166 38.813 104.888 46.4034Z" stroke="#179642" stroke-width="2" stroke-linecap="round" stroke-linejoin="round"/>
<path d="M85.6309 43.75C92.1752 51.4525 97.919 59.799 102.774 68.6613" stroke="#179642" stroke-width="2" stroke-linecap="round" stroke-linejoin="round"/>
<g clip-path="url(#clip0_532_5664)">
<path d="M46.854 37.3257C44.3288 41.7567 39.0221 41.9367 36.8616 41.8235C36.5563 41.8013 36.2621 41.7141 35.9998 41.5684C35.7375 41.4225 35.5133 41.2217 35.3431 40.9796C34.0909 39.2874 31.4336 34.8477 33.9968 30.4935C36.3639 26.2838 42.7025 23.2852 45.8062 22.0254C46.0336 21.9239 46.2806 21.8754 46.5268 21.884C46.7731 21.8927 47.0114 21.9581 47.2224 22.0749C47.4333 22.1917 47.6107 22.3566 47.7401 22.556C47.8694 22.7554 47.947 22.9836 47.9664 23.2219C48.4919 26.3874 49.24 33.1543 46.854 37.3257Z" stroke="#179642" stroke-linecap="round" stroke-linejoin="round"/>
<path d="M43.8447 28.0742C41.6653 32.7975 39.0056 37.3114 35.9064 41.5463" stroke="#179642" stroke-linecap="round" stroke-linejoin="round"/>
</g>
<g clip-path="url(#clip1_532_5664)">
<path d="M85.854 101.326C83.3288 105.757 78.0221 105.937 75.8616 105.824C75.5563 105.801 75.2621 105.714 74.9998 105.568C74.7375 105.423 74.5133 105.222 74.3431 104.98C73.0909 103.287 70.4336 98.8477 72.9968 94.4935C75.3639 90.2838 81.7025 87.2852 84.8062 86.0254C85.0336 85.9239 85.2806 85.8754 85.5268 85.884C85.7731 85.8927 86.0114 85.9581 86.2224 86.0749C86.4333 86.1917 86.6107 86.3566 86.7401 86.556C86.8694 86.7554 86.947 86.9836 86.9664 87.2219C87.4919 90.3874 88.24 97.1543 85.854 101.326Z" stroke="#179642" stroke-linecap="round" stroke-linejoin="round"/>
<path d="M82.8447 92.0742C80.6653 96.7975 78.0056 101.311 74.9064 105.546" stroke="#179642" stroke-linecap="round" stroke-linejoin="round"/>
</g>
<g clip-path="url(#clip2_532_5664)">
<path d="M25.854 85.3257C23.3288 89.7567 18.0221 89.9367 15.8616 89.8235C15.5563 89.8013 15.2621 89.7141 14.9998 89.5684C14.7375 89.4225 14.5133 89.2217 14.3431 88.9796C13.0909 87.2874 10.4336 82.8477 12.9968 78.4935C15.3639 74.2838 21.7025 71.2852 24.8062 70.0254C25.0336 69.9239 25.2806 69.8754 25.5268 69.884C25.7731 69.8927 26.0114 69.9581 26.2224 70.0749C26.4333 70.1917 26.6107 70.3566 26.7401 70.556C26.8694 70.7554 26.947 70.9836 26.9664 71.2219C27.4919 74.3874 28.24 81.1543 25.854 85.3257Z" stroke="#179642" stroke-linecap="round" stroke-linejoin="round"/>
<path d="M22.8447 76.0742C20.6653 80.7975 18.0056 85.3114 14.9064 89.5463" stroke="#179642" stroke-linecap="round" stroke-linejoin="round"/>
</g>
<g clip-path="url(#clip3_532_5664)">
<path d="M121.72 87.4027C116.634 87.7745 113.528 83.468 112.418 81.6108C112.266 81.3449 112.175 81.052 112.15 80.753C112.125 80.4539 112.167 80.1559 112.273 79.8796C112.98 77.897 115.187 73.2168 120.231 72.9194C125.045 72.5397 131.067 76.1327 133.842 78.0082C134.053 78.1405 134.231 78.3186 134.361 78.5279C134.491 78.7371 134.569 78.9715 134.59 79.2118C134.61 79.452 134.572 79.6913 134.479 79.9098C134.385 80.1283 134.239 80.3198 134.052 80.4687C131.716 82.6687 126.514 87.0601 121.72 87.4027Z" stroke="#179642" stroke-linecap="round" stroke-linejoin="round"/>
<path d="M127.727 79.75C122.59 80.5717 117.36 80.8779 112.116 80.6637" stroke="#179642" stroke-linecap="round" stroke-linejoin="round"/>
</g>
<path d="M157.584 101.196C154.396 97.2147 156.185 92.2155 157.087 90.2489C157.22 89.9732 157.409 89.7319 157.641 89.5417C157.874 89.3517 158.143 89.2174 158.431 89.1484C160.465 88.6083 165.572 87.7748 168.675 91.7627C171.715 95.515 172.166 102.513 172.193 105.862C172.203 106.111 172.157 106.358 172.059 106.584C171.96 106.81 171.811 107.007 171.625 107.16C171.438 107.313 171.22 107.417 170.987 107.464C170.754 107.511 170.513 107.499 170.284 107.429C167.148 106.751 160.582 104.951 157.584 101.196Z" stroke="#179642" stroke-linecap="round" stroke-linejoin="round"/>
<path d="M167.293 101.809C163.706 98.0414 160.491 93.905 157.697 89.4628" stroke="#179642" stroke-linecap="round" stroke-linejoin="round"/>
<g clip-path="url(#clip4_532_5664)">
<path d="M60.3249 58.8231C64.7707 61.3225 64.9817 66.6279 64.8811 68.7891C64.8606 69.0945 64.7752 69.3892 64.631 69.6524C64.4866 69.9155 64.2871 70.1409 64.046 70.3125C62.3612 71.5745 57.9371 74.2577 53.5679 71.72C49.3445 69.3775 46.309 63.0566 45.031 59.9603C44.9282 59.7335 44.8783 59.4867 44.8855 59.2405C44.8926 58.9942 44.9567 58.7554 45.0723 58.5438C45.1878 58.3322 45.3517 58.1538 45.5504 58.0233C45.749 57.8928 45.9768 57.8139 46.2149 57.7931C49.3772 57.2492 56.1397 56.4615 60.3249 58.8231Z" stroke="#FFD464" stroke-linecap="round" stroke-linejoin="round"/>
<path d="M51.0908 61.8867C55.8268 64.0385 60.3561 66.6719 64.6091 69.7463" stroke="#FFD464" stroke-linecap="round" stroke-linejoin="round"/>
</g>
<g clip-path="url(#clip5_532_5664)">
<path d="M165.387 25.1749C161.318 28.2488 156.371 26.3188 154.431 25.3617C154.159 25.2207 153.923 25.0244 153.74 24.787C153.557 24.5494 153.43 24.2763 153.369 23.9867C152.887 21.9376 152.199 16.8094 156.273 13.8211C160.11 10.8881 167.117 10.6361 170.466 10.7041C170.715 10.7007 170.961 10.7537 171.184 10.8589C171.407 10.964 171.6 11.1182 171.748 11.3088C171.896 11.4995 171.993 11.721 172.034 11.9553C172.074 12.1896 172.055 12.4299 171.979 12.6564C171.211 15.7722 169.227 22.2847 165.387 25.1749Z" stroke="#FFD464" stroke-linecap="round" stroke-linejoin="round"/>
<path d="M166.276 15.4863C162.409 18.9652 158.183 22.0621 153.663 24.7292" stroke="#FFD464" stroke-linecap="round" stroke-linejoin="round"/>
</g>
<g clip-path="url(#clip6_532_5664)">
<path d="M17.3428 10.85C20.3779 14.9486 18.4011 19.8766 17.4256 21.8076C17.2821 22.078 17.0836 22.312 16.8444 22.4933C16.6051 22.6744 16.3308 22.7984 16.0406 22.8565C13.9871 23.3192 8.85258 23.9589 5.90306 19.8565C3.00662 15.9919 2.82105 8.98225 2.92086 5.63413C2.91978 5.38506 2.97513 5.13951 3.08237 4.9177C3.18962 4.6959 3.34566 4.50419 3.53768 4.35835C3.72969 4.2125 3.95217 4.1167 4.18682 4.07882C4.42147 4.04094 4.66158 4.06207 4.88737 4.14047C7.9957 4.93714 14.4891 6.98346 17.3428 10.85Z" stroke="#FFD464" stroke-linecap="round" stroke-linejoin="round"/>
<path d="M7.66357 9.86914C11.1057 13.7693 14.1623 18.0245 16.7864 22.5691" stroke="#FFD464" stroke-linecap="round" stroke-linejoin="round"/>
</g>
<g clip-path="url(#clip7_532_5664)">
<path d="M92.5054 14.355C93.3446 19.3856 89.343 22.8756 87.596 24.1518C87.3452 24.3273 87.062 24.4454 86.7666 24.4981C86.4711 24.5505 86.1704 24.5363 85.8856 24.456C83.8462 23.9343 78.9824 22.169 78.2212 17.174C77.399 12.415 80.4215 6.08771 82.033 3.15122C82.1453 2.9289 82.3062 2.73539 82.5026 2.58661C82.699 2.43784 82.9251 2.33807 83.1625 2.2955C83.3998 2.25292 83.6415 2.26878 83.8677 2.34175C84.0939 2.41473 84.2982 2.54274 84.4636 2.71524C86.8696 4.83832 91.7222 9.61375 92.5054 14.355Z" stroke="#FFD464" stroke-linecap="round" stroke-linejoin="round"/>
<path d="M84.3306 9.08008C85.6225 14.119 86.4097 19.2987 86.68 24.5396" stroke="#FFD464" stroke-linecap="round" stroke-linejoin="round"/>
</g>
<g clip-path="url(#clip8_532_5664)">
<path d="M124.777 42.343C123.241 37.4796 126.715 33.4635 128.266 31.9551C128.489 31.7462 128.753 31.5895 129.038 31.496C129.324 31.4027 129.623 31.3747 129.917 31.4142C132.009 31.6451 137.072 32.7116 138.526 37.5506C140.006 42.1476 137.9 48.8359 136.716 51.9692C136.636 52.205 136.504 52.4192 136.33 52.594C136.156 52.7688 135.946 52.8993 135.717 52.9747C135.488 53.0501 135.247 53.0683 135.013 53.0277C134.778 52.9871 134.558 52.889 134.37 52.7414C131.691 50.9763 126.217 46.9278 124.777 42.343Z" stroke="#FFD464" stroke-linecap="round" stroke-linejoin="round"/>
<path d="M133.61 46.4199C131.625 41.6117 130.12 36.5934 129.118 31.442" stroke="#FFD464" stroke-linecap="round" stroke-linejoin="round"/>
</g>
<defs>
<clipPath id="clip0_532_5664">
<rect width="20" height="21" fill="white" transform="translate(46.834 19) rotate(63.7489)"/>
</clipPath>
<clipPath id="clip1_532_5664">
<rect width="20" height="21" fill="white" transform="translate(85.834 83) rotate(63.7489)"/>
</clipPath>
<clipPath id="clip2_532_5664">
<rect width="20" height="21" fill="white" transform="translate(25.834 67) rotate(63.7489)"/>
</clipPath>
<clipPath id="clip3_532_5664">
<rect width="20" height="21" fill="white" transform="translate(136.927 77.1758) rotate(119.891)"/>
</clipPath>
<clipPath id="clip4_532_5664">
<rect width="20" height="21" fill="white" transform="translate(42 58.9512) rotate(-26.5856)"/>
</clipPath>
<clipPath id="clip5_532_5664">
<rect width="20" height="21" fill="white" transform="translate(172.605 8.33008) rotate(87.0062)"/>
</clipPath>
<clipPath id="clip6_532_5664">
<rect width="20" height="21" fill="white" transform="translate(0.567871 3.47266) rotate(-2.45033)"/>
</clipPath>
<clipPath id="clip7_532_5664">
<rect width="20" height="21" fill="white" transform="translate(80.9199 0.15625) rotate(24.5992)"/>
</clipPath>
<clipPath id="clip8_532_5664">
<rect width="20" height="21" fill="white" transform="translate(138.237 54.7793) rotate(-163.454)"/>
</clipPath>
</defs>
</svg>
