<svg width="179" height="160" viewBox="0 0 179 160" fill="none" xmlns="http://www.w3.org/2000/svg">
<path d="M99.9998 108.571C110 108.571 117.143 105.033 117.143 97.1596C117.143 88.6013 112.857 82.8958 104.286 78.6167L107.657 74.2805C107.828 73.996 107.921 73.6713 107.926 73.3394C107.931 73.0075 107.848 72.6802 107.686 72.3905C107.524 72.1009 107.287 71.8593 107.001 71.6902C106.715 71.5211 106.389 71.4306 106.057 71.4277H93.9426C93.6102 71.4306 93.2844 71.5211 92.9983 71.6902C92.7122 71.8593 92.476 72.1009 92.3136 72.3905C92.1511 72.6802 92.0682 73.0075 92.0734 73.3394C92.0785 73.6713 92.1714 73.996 92.3426 74.2805L95.7141 78.6452C87.1426 82.9528 82.8569 88.6584 82.8569 97.2166C82.8569 105.033 89.9998 108.571 99.9998 108.571Z" stroke="#179642" stroke-width="1.5" stroke-linecap="round" stroke-linejoin="round"/>
<path d="M103.95 89.4443C103.815 89.0599 103.605 88.7103 103.338 88.4126C102.772 87.7794 101.948 87.3809 101.031 87.3809H98.6355C97.1096 87.3809 95.8726 88.6179 95.8726 90.1438C95.8726 91.4422 96.7766 92.5654 98.0451 92.8429L101.693 93.6408C103.114 93.9517 104.127 95.2109 104.127 96.6655C104.127 98.3749 102.741 99.762 101.031 99.762H98.9678C97.6201 99.762 96.4736 98.9006 96.0487 97.6984" stroke="#179642" stroke-width="1.5" stroke-linecap="round" stroke-linejoin="round"/>
<path d="M100 87.3804V84.2852" stroke="#179642" stroke-width="1.5" stroke-linecap="round" stroke-linejoin="round"/>
<path d="M100 102.857V99.7617" stroke="#179642" stroke-width="1.5" stroke-linecap="round" stroke-linejoin="round"/>
<g clip-path="url(#clip0_532_5665)">
<path d="M49.4381 70.9592C55.1384 73.2787 61.6395 70.5381 63.959 64.8379C66.2785 59.1377 63.538 52.6365 57.8377 50.317C52.1375 47.9975 45.6363 50.7381 43.3168 56.4383C40.9973 62.1385 43.7379 68.6397 49.4381 70.9592Z" stroke="#179642" stroke-linecap="round" stroke-linejoin="round"/>
<path d="M57.489 58.9156C57.5031 58.6148 57.457 58.3173 57.3576 58.0395C57.1461 57.4486 56.6937 56.9468 56.0667 56.6917L54.4279 56.0249C53.3842 55.6002 52.1938 56.102 51.7691 57.1457C51.4077 58.0338 51.7135 59.0537 52.5038 59.5965L54.7768 61.1576C55.6622 61.7657 56.0045 62.9089 55.5996 63.9038C55.1238 65.0731 53.79 65.6361 52.6207 65.1603L51.2093 64.5859C50.2874 64.2108 49.743 63.3026 49.7869 62.362" stroke="#179642" stroke-linecap="round" stroke-linejoin="round"/>
<path d="M55.3607 56.4043L56.2222 54.2871" stroke="#179642" stroke-linecap="round" stroke-linejoin="round"/>
<path d="M51.0536 66.9901L51.915 64.873" stroke="#179642" stroke-linecap="round" stroke-linejoin="round"/>
</g>
<g clip-path="url(#clip1_532_5665)">
<path d="M11.4381 56.9592C17.1384 59.2787 23.6395 56.5381 25.959 50.8379C28.2785 45.1377 25.538 38.6365 19.8377 36.317C14.1375 33.9975 7.63629 36.7381 5.31681 42.4383C2.9973 48.1385 5.73794 54.6397 11.4381 56.9592Z" stroke="black" stroke-linecap="round" stroke-linejoin="round"/>
<path d="M19.489 44.9156C19.5031 44.6148 19.457 44.3173 19.3576 44.0395C19.1461 43.4486 18.6937 42.9468 18.0667 42.6917L16.4279 42.0249C15.3842 41.6002 14.1938 42.102 13.7691 43.1457C13.4077 44.0338 13.7135 45.0537 14.5038 45.5965L16.7768 47.1576C17.6622 47.7657 18.0045 48.9089 17.5996 49.9038C17.1238 51.0731 15.79 51.6361 14.6207 51.1603L13.2093 50.5859C12.2874 50.2108 11.743 49.3026 11.7869 48.362" stroke="black" stroke-linecap="round" stroke-linejoin="round"/>
<path d="M17.3607 42.4043L18.2222 40.2871" stroke="black" stroke-linecap="round" stroke-linejoin="round"/>
<path d="M13.0536 52.9901L13.915 50.873" stroke="black" stroke-linecap="round" stroke-linejoin="round"/>
</g>
<g clip-path="url(#clip2_532_5665)">
<path d="M55.4381 25.9592C61.1384 28.2787 67.6395 25.5381 69.959 19.8379C72.2785 14.1377 69.538 7.63649 63.8377 5.31698C58.1375 2.9975 51.6363 5.7381 49.3168 11.4383C46.9973 17.1385 49.7379 23.6397 55.4381 25.9592Z" stroke="#FFD464" stroke-linecap="round" stroke-linejoin="round"/>
<path d="M63.489 13.9156C63.5031 13.6148 63.457 13.3173 63.3576 13.0395C63.1461 12.4486 62.6937 11.9468 62.0667 11.6917L60.4279 11.0249C59.3842 10.6002 58.1938 11.102 57.7691 12.1457C57.4077 13.0338 57.7135 14.0537 58.5038 14.5965L60.7768 16.1576C61.6622 16.7657 62.0045 17.9089 61.5996 18.9038C61.1238 20.0731 59.79 20.6361 58.6207 20.1603L57.2093 19.5859C56.2874 19.2108 55.743 18.3026 55.7869 17.362" stroke="#FFD464" stroke-linecap="round" stroke-linejoin="round"/>
<path d="M61.3607 11.4043L62.2222 9.28711" stroke="#FFD464" stroke-linecap="round" stroke-linejoin="round"/>
<path d="M57.0536 21.9901L57.915 19.873" stroke="#FFD464" stroke-linecap="round" stroke-linejoin="round"/>
</g>
<g clip-path="url(#clip3_532_5665)">
<path d="M98.9735 45.6926C103.774 41.8414 104.543 34.8283 100.692 30.0281C96.8405 25.2281 89.8273 24.4588 85.0272 28.31C80.2272 32.1612 79.4579 39.1744 83.3091 43.9745C87.1603 48.7746 94.1735 49.5438 98.9735 45.6926Z" stroke="#FFD464" stroke-linecap="round" stroke-linejoin="round"/>
<path d="M92.369 32.7993C92.1131 32.6407 91.8308 32.5362 91.5397 32.4879C90.9206 32.385 90.2621 32.5361 89.7341 32.9598L88.3541 34.0669C87.4752 34.7721 87.3343 36.0562 88.0395 36.9351C88.6395 37.683 89.6793 37.9122 90.5382 37.4858L93.0079 36.2597C93.97 35.7821 95.1353 36.0394 95.8075 36.8772C96.5975 37.8618 96.4403 39.3011 95.4556 40.0911L94.2671 41.0447C93.4908 41.6675 92.4324 41.7012 91.6321 41.2051" stroke="#FFD464" stroke-linecap="round" stroke-linejoin="round"/>
<path d="M89.1394 33.4352L87.709 31.6523" stroke="#FFD464" stroke-linecap="round" stroke-linejoin="round"/>
<path d="M96.2912 42.3492L94.8608 40.5664" stroke="#FFD464" stroke-linecap="round" stroke-linejoin="round"/>
</g>
<g clip-path="url(#clip4_532_5665)">
<path d="M145.843 42.5617C150.643 38.7105 151.412 31.6974 147.561 26.8973C143.71 22.0972 136.696 21.328 131.896 25.1792C127.096 29.0303 126.327 36.0436 130.178 40.8436C134.029 45.6437 141.043 46.4129 145.843 42.5617Z" stroke="#179642" stroke-linecap="round" stroke-linejoin="round"/>
<path d="M139.238 29.6684C138.982 29.5098 138.7 29.4053 138.409 29.357C137.79 29.2542 137.131 29.4053 136.603 29.8289L135.223 30.9361C134.344 31.6412 134.203 32.9254 134.909 33.8043C135.509 34.5522 136.548 34.7813 137.407 34.355L139.877 33.1289C140.839 32.6513 142.004 32.9085 142.677 33.7463C143.467 34.731 143.309 36.1702 142.325 36.9602L141.136 37.9138C140.36 38.5366 139.302 38.5703 138.501 38.0742" stroke="#179642" stroke-linecap="round" stroke-linejoin="round"/>
<path d="M136.009 30.3043L134.578 28.5215" stroke="#179642" stroke-linecap="round" stroke-linejoin="round"/>
<path d="M143.16 39.2183L141.73 37.4355" stroke="#179642" stroke-linecap="round" stroke-linejoin="round"/>
</g>
<g clip-path="url(#clip5_532_5665)">
<path d="M144.085 81.4324C149.846 83.5949 156.27 80.6772 158.432 74.9156C160.595 69.154 157.677 62.7303 151.916 60.5678C146.154 58.4054 139.73 61.323 137.568 67.0846C135.405 72.8463 138.323 79.2699 144.085 81.4324Z" stroke="black" stroke-linecap="round" stroke-linejoin="round"/>
<path d="M151.802 69.1731C151.808 68.8721 151.754 68.576 151.647 68.301C151.419 67.7161 150.953 67.2269 150.32 66.989L148.663 66.3673C147.608 65.9714 146.432 66.5056 146.036 67.5606C145.699 68.4582 146.033 69.4694 146.838 69.9904L149.152 71.4886C150.054 72.0722 150.428 73.2056 150.05 74.2113C149.607 75.3931 148.289 75.9924 147.107 75.5488L145.68 75.0134C144.748 74.6637 144.179 73.7707 144.197 72.8293" stroke="black" stroke-linecap="round" stroke-linejoin="round"/>
<path d="M149.606 66.72L150.41 64.5801" stroke="black" stroke-linecap="round" stroke-linejoin="round"/>
<path d="M145.591 77.4192L146.394 75.2793" stroke="black" stroke-linecap="round" stroke-linejoin="round"/>
</g>
<g clip-path="url(#clip6_532_5665)">
<path d="M125.762 142.917C131.791 144.153 137.68 140.267 138.916 134.238C140.151 128.21 136.266 122.321 130.237 121.085C124.209 119.849 118.32 123.735 117.084 129.764C115.848 135.792 119.734 141.681 125.762 142.917Z" stroke="#179642" stroke-linecap="round" stroke-linejoin="round"/>
<path d="M131.47 129.601C131.429 129.302 131.329 129.018 131.18 128.764C130.864 128.221 130.327 127.811 129.664 127.675L127.931 127.32C126.827 127.094 125.749 127.805 125.522 128.909C125.33 129.848 125.817 130.795 126.694 131.184L129.214 132.302C130.196 132.737 130.742 133.798 130.527 134.851C130.273 136.087 129.065 136.885 127.828 136.632L126.336 136.326C125.361 136.126 124.659 135.333 124.53 134.4" stroke="#179642" stroke-linecap="round" stroke-linejoin="round"/>
<path d="M128.918 127.522L129.376 125.283" stroke="#179642" stroke-linecap="round" stroke-linejoin="round"/>
<path d="M126.623 138.718L127.082 136.479" stroke="#179642" stroke-linecap="round" stroke-linejoin="round"/>
</g>
<g clip-path="url(#clip7_532_5665)">
<path d="M161.928 131.081C167.956 132.317 173.845 128.431 175.081 122.402C176.316 116.374 172.431 110.485 166.402 109.249C160.374 108.013 154.485 111.899 153.249 117.928C152.013 123.956 155.899 129.845 161.928 131.081Z" stroke="#FFD464" stroke-linecap="round" stroke-linejoin="round"/>
<path d="M167.635 117.765C167.594 117.466 167.494 117.182 167.345 116.928C167.029 116.385 166.492 115.975 165.829 115.839L164.096 115.484C162.992 115.258 161.914 115.969 161.687 117.073C161.495 118.012 161.982 118.959 162.859 119.348L165.379 120.466C166.361 120.901 166.907 121.962 166.692 123.015C166.438 124.251 165.23 125.049 163.993 124.796L162.501 124.49C161.526 124.29 160.824 123.497 160.695 122.564" stroke="#FFD464" stroke-linecap="round" stroke-linejoin="round"/>
<path d="M165.083 115.686L165.542 113.447" stroke="#FFD464" stroke-linecap="round" stroke-linejoin="round"/>
<path d="M162.788 126.882L163.247 124.643" stroke="#FFD464" stroke-linecap="round" stroke-linejoin="round"/>
</g>
<g clip-path="url(#clip8_532_5665)">
<path d="M90.6401 149.044C95.1017 144.805 95.2822 137.752 91.0434 133.291C86.8046 128.829 79.7517 128.649 75.2901 132.888C70.8287 137.126 70.6481 144.179 74.8869 148.641C79.1258 153.102 86.1787 153.283 90.6401 149.044Z" stroke="black" stroke-linecap="round" stroke-linejoin="round"/>
<path d="M82.9811 136.748C82.7128 136.611 82.4227 136.531 82.1286 136.507C81.5031 136.456 80.8595 136.662 80.3687 137.128L79.0861 138.347C78.2692 139.123 78.2361 140.414 79.0122 141.231C79.6727 141.926 80.728 142.068 81.5482 141.571L83.9069 140.143C84.8257 139.587 86.0084 139.746 86.7483 140.524C87.6178 141.439 87.5813 142.887 86.6661 143.756L85.5614 144.806C84.8399 145.491 83.788 145.613 82.9491 145.186" stroke="black" stroke-linecap="round" stroke-linejoin="round"/>
<path d="M79.8165 137.651L78.2422 135.994" stroke="black" stroke-linecap="round" stroke-linejoin="round"/>
<path d="M87.6881 145.936L86.1138 144.279" stroke="black" stroke-linecap="round" stroke-linejoin="round"/>
</g>
<g clip-path="url(#clip9_532_5665)">
<path d="M50.6401 151.044C55.1017 146.805 55.2822 139.752 51.0434 135.291C46.8046 130.829 39.7517 130.649 35.2901 134.888C30.8287 139.126 30.6481 146.179 34.8869 150.641C39.1258 155.102 46.1787 155.283 50.6401 151.044Z" stroke="#FFD464" stroke-linecap="round" stroke-linejoin="round"/>
<path d="M42.9811 138.748C42.7128 138.611 42.4227 138.531 42.1286 138.507C41.5031 138.456 40.8595 138.662 40.3687 139.128L39.0861 140.347C38.2692 141.123 38.2361 142.414 39.0122 143.231C39.6727 143.926 40.728 144.068 41.5482 143.571L43.9069 142.143C44.8257 141.587 46.0084 141.746 46.7483 142.524C47.6178 143.439 47.5813 144.887 46.6661 145.756L45.5614 146.806C44.8399 147.491 43.788 147.613 42.9491 147.186" stroke="#FFD464" stroke-linecap="round" stroke-linejoin="round"/>
<path d="M39.8165 139.651L38.2422 137.994" stroke="#FFD464" stroke-linecap="round" stroke-linejoin="round"/>
<path d="M47.6881 147.936L46.1138 146.279" stroke="#FFD464" stroke-linecap="round" stroke-linejoin="round"/>
</g>
<g clip-path="url(#clip10_532_5665)">
<path d="M59.4716 117.031C65.0788 114.494 67.568 107.893 65.0317 102.286C62.4953 96.6789 55.8939 94.1895 50.2868 96.7259C44.6797 99.2623 42.1904 105.864 44.7267 111.471C47.2631 117.078 53.8646 119.567 59.4716 117.031Z" stroke="#179642" stroke-linecap="round" stroke-linejoin="round"/>
<path d="M56.2813 102.899C56.0728 102.681 55.8254 102.51 55.5555 102.391C54.9814 102.137 54.306 102.12 53.6892 102.399L52.0772 103.128C51.0505 103.592 50.5947 104.801 51.0592 105.828C51.4543 106.701 52.4045 107.182 53.3423 106.983L56.0394 106.409C57.0901 106.186 58.1548 106.725 58.5975 107.704C59.1178 108.854 58.6075 110.209 57.4573 110.729L56.069 111.357C55.1622 111.767 54.1287 111.537 53.4769 110.857" stroke="#179642" stroke-linecap="round" stroke-linejoin="round"/>
<path d="M52.9953 102.713L52.0532 100.631" stroke="#179642" stroke-linecap="round" stroke-linejoin="round"/>
<path d="M57.7052 113.125L56.7632 111.043" stroke="#179642" stroke-linecap="round" stroke-linejoin="round"/>
</g>
<g clip-path="url(#clip11_532_5665)">
<path d="M23.4716 101.031C29.0788 98.4945 31.568 91.8931 29.0317 86.2859C26.4953 80.6789 19.8939 78.1895 14.2868 80.7259C8.6797 83.2623 6.19039 89.8638 8.72672 95.4708C11.2631 101.078 17.8646 103.567 23.4716 101.031Z" stroke="#FFD464" stroke-linecap="round" stroke-linejoin="round"/>
<path d="M20.2813 86.8986C20.0728 86.6813 19.8254 86.5099 19.5555 86.3907C18.9814 86.1371 18.306 86.1197 17.6892 86.3987L16.0772 87.1279C15.0505 87.5923 14.5947 88.801 15.0592 89.8277C15.4543 90.7013 16.4045 91.1819 17.3423 90.9825L20.0394 90.4092C21.0901 90.1859 22.1548 90.7249 22.5975 91.7036C23.1178 92.8537 22.6075 94.2086 21.4573 94.7289L20.069 95.3569C19.1622 95.7671 18.1287 95.5365 17.4769 94.857" stroke="#FFD464" stroke-linecap="round" stroke-linejoin="round"/>
<path d="M16.9953 86.7134L16.0532 84.6309" stroke="#FFD464" stroke-linecap="round" stroke-linejoin="round"/>
<path d="M21.7052 97.1255L20.7632 95.043" stroke="#FFD464" stroke-linecap="round" stroke-linejoin="round"/>
</g>
<defs>
<clipPath id="clip0_532_5665">
<rect width="24" height="24" fill="white" transform="translate(47.0459 45) rotate(22.142)"/>
</clipPath>
<clipPath id="clip1_532_5665">
<rect width="24" height="24" fill="white" transform="translate(9.0459 31) rotate(22.142)"/>
</clipPath>
<clipPath id="clip2_532_5665">
<rect width="24" height="24" fill="white" transform="translate(53.0459) rotate(22.142)"/>
</clipPath>
<clipPath id="clip3_532_5665">
<rect width="24" height="24" fill="white" transform="translate(75.1309 35.1504) rotate(-38.7407)"/>
</clipPath>
<clipPath id="clip4_532_5665">
<rect width="24" height="24" fill="white" transform="translate(122 32.0195) rotate(-38.7407)"/>
</clipPath>
<clipPath id="clip5_532_5665">
<rect width="24" height="24" fill="white" transform="translate(140.982 55.5488) rotate(20.5723)"/>
</clipPath>
<clipPath id="clip6_532_5665">
<rect width="24" height="24" fill="white" transform="translate(118.654 117.836) rotate(11.5831)"/>
</clipPath>
<clipPath id="clip7_532_5665">
<rect width="24" height="24" fill="white" transform="translate(154.819 106) rotate(11.5831)"/>
</clipPath>
<clipPath id="clip8_532_5665">
<rect width="24" height="24" fill="white" transform="translate(66 140.531) rotate(-43.5337)"/>
</clipPath>
<clipPath id="clip9_532_5665">
<rect width="24" height="24" fill="white" transform="translate(26 142.531) rotate(-43.5337)"/>
</clipPath>
<clipPath id="clip10_532_5665">
<rect width="24" height="24" fill="white" transform="translate(39 100.891) rotate(-24.3395)"/>
</clipPath>
<clipPath id="clip11_532_5665">
<rect width="24" height="24" fill="white" transform="translate(3 84.8906) rotate(-24.3395)"/>
</clipPath>
</defs>
</svg>
