<svg width="42" height="42" viewBox="0 0 42 42" fill="none" xmlns="http://www.w3.org/2000/svg">
<path d="M39.783 15.9354C39.783 26.5407 31.101 39.4051 20.3914 39.4051C9.68185 39.4051 1 26.5407 1 15.9354C1 5.33017 9.68185 1 20.3914 1C31.101 1 39.783 5.33017 39.783 15.9354Z" stroke="#1F2143" stroke-width="2" stroke-linecap="round" stroke-linejoin="round"/>
<path d="M33.2103 32.7421C29.793 36.697 25.3064 39.4049 20.393 39.4049C15.4838 39.4049 11.0006 36.7017 7.58447 32.7519C9.74888 27.2015 14.6722 24.8223 20.3993 24.8223C26.1229 24.8223 31.0438 27.1986 33.2103 32.7421Z" stroke="#1F2143" stroke-width="2" stroke-linecap="round" stroke-linejoin="round"/>
<path d="M4.60494 37.8105L1 41.0004" stroke="#1F2143" stroke-width="2" stroke-linecap="round" stroke-linejoin="round"/>
<path d="M37.395 37.8105L41.0002 41.0004" stroke="#1F2143" stroke-width="2" stroke-linecap="round" stroke-linejoin="round"/>
<path d="M28.2414 9.49609H12.5501C10.1803 9.49609 8.25928 11.3062 8.25928 13.5391C8.25928 15.7719 10.1803 17.5821 12.5501 17.5821H28.2414C30.6111 17.5821 32.5321 15.7719 32.5321 13.5391C32.5321 11.3062 30.6111 9.49609 28.2414 9.49609Z" stroke="#1F2143" stroke-width="2" stroke-linecap="round" stroke-linejoin="round"/>
</svg>
