<svg width="24" height="24" viewBox="0 0 24 24" fill="none" xmlns="http://www.w3.org/2000/svg">
<g clip-path="url(#clip0_249_5487)">
<path d="M7.71429 22.1272L0 24.2872L2.16 16.5729L16.2857 2.51579C16.4453 2.35251 16.6361 2.22277 16.8465 2.1342C17.057 2.04563 17.2831 2 17.5114 2C17.7398 2 17.9659 2.04563 18.1764 2.1342C18.3867 2.22277 18.5775 2.35251 18.7371 2.51579L21.7714 5.56721C21.9321 5.72657 22.0596 5.91619 22.1467 6.12508C22.2338 6.33398 22.2785 6.55805 22.2785 6.78436C22.2785 7.01066 22.2338 7.23473 22.1467 7.44364C22.0596 7.65254 21.9321 7.84214 21.7714 8.0015L7.71429 22.1272Z" stroke="black" stroke-width="2" stroke-linecap="round" stroke-linejoin="round"/>
</g>
<defs>
<clipPath id="clip0_249_5487">
<rect width="24" height="24" fill="white"/>
</clipPath>
</defs>
</svg>
