<svg width="16" height="16" viewBox="0 0 16 16" fill="none" xmlns="http://www.w3.org/2000/svg">
<g clip-path="url(#clip0_318_1667)">
<path d="M13.1553 6.16254C15.4411 9.38134 13.6925 13.0682 12.8468 14.5063C12.7228 14.7075 12.5561 14.8791 12.3588 15.0093C12.1613 15.1393 11.9379 15.2248 11.7039 15.2596C10.0467 15.545 5.92102 15.8646 3.70387 12.6458C1.52102 9.60962 1.61245 4.2678 1.80673 1.72244C1.81439 1.5328 1.86703 1.34769 1.96033 1.18235C2.05363 1.017 2.18491 0.876153 2.34337 0.771391C2.50183 0.666628 2.68293 0.600949 2.87177 0.579759C3.06062 0.558569 3.25181 0.582474 3.42959 0.649508C5.88673 1.35719 11.0067 3.12638 13.1553 6.16254Z" stroke="black" stroke-width="1.5" stroke-linecap="round" stroke-linejoin="round"/>
<path d="M5.45245 5.10156C8.0702 8.18255 10.3677 11.5212 12.3096 15.0661" stroke="black" stroke-width="1.5" stroke-linecap="round" stroke-linejoin="round"/>
</g>
<defs>
<clipPath id="clip0_318_1667">
<rect width="16" height="16" fill="white"/>
</clipPath>
</defs>
</svg>
