<svg width="24" height="24" viewBox="0 0 24 24" fill="none" xmlns="http://www.w3.org/2000/svg">
<g clip-path="url(#clip0_142_12169)">
<path d="M18.031 15.617L22.314 19.899L20.899 21.314L16.617 17.031C15.0237 18.3082 13.042 19.0029 11 19C6.032 19 2 14.968 2 10C2 5.032 6.032 1 11 1C15.968 1 20 5.032 20 10C20.0029 12.042 19.3082 14.0237 18.031 15.617ZM16.025 14.875C17.2941 13.5699 18.0029 11.8204 18 10C18 6.132 14.867 3 11 3C7.132 3 4 6.132 4 10C4 13.867 7.132 17 11 17C12.8204 17.0029 14.5699 16.2941 15.875 15.025L16.025 14.875Z" fill="#1D1D1F"/>
</g>
<defs>
<clipPath id="clip0_142_12169">
<rect width="24" height="24" fill="white"/>
</clipPath>
</defs>
</svg>
