<svg width="24" height="24" viewBox="0 0 24 24" fill="none" xmlns="http://www.w3.org/2000/svg">
<mask id="mask0_104_8901" style="mask-type:luminance" maskUnits="userSpaceOnUse" x="0" y="0" width="24" height="24">
<path d="M23.7209 9.81818H12.2791V14.4545H18.8651C18.2512 17.4 15.6837 19.0909 12.2791 19.0909C8.26047 19.0909 5.02326 15.9273 5.02326 12C5.02326 8.07273 8.26047 4.90909 12.2791 4.90909C14.0093 4.90909 15.5721 5.50909 16.8 6.49091L20.3721 3C18.1953 1.14545 15.4047 0 12.2791 0C5.46977 0 0 5.34545 0 12C0 18.6545 5.46977 24 12.2791 24C18.4186 24 24 19.6364 24 12C24 11.2909 23.8884 10.5273 23.7209 9.81818Z" fill="white"/>
</mask>
<g mask="url(#mask0_104_8901)">
<path d="M-1.11621 19.0909V4.90909L8.37216 12L-1.11621 19.0909Z" fill="#FBBC05"/>
</g>
<mask id="mask1_104_8901" style="mask-type:luminance" maskUnits="userSpaceOnUse" x="0" y="0" width="24" height="24">
<path d="M23.7209 9.81818H12.2791V14.4545H18.8651C18.2512 17.4 15.6837 19.0909 12.2791 19.0909C8.26047 19.0909 5.02326 15.9273 5.02326 12C5.02326 8.07273 8.26047 4.90909 12.2791 4.90909C14.0093 4.90909 15.5721 5.50909 16.8 6.49091L20.3721 3C18.1953 1.14545 15.4047 0 12.2791 0C5.46977 0 0 5.34545 0 12C0 18.6545 5.46977 24 12.2791 24C18.4186 24 24 19.6364 24 12C24 11.2909 23.8884 10.5273 23.7209 9.81818Z" fill="white"/>
</mask>
<g mask="url(#mask1_104_8901)">
<path d="M-1.11621 4.9091L8.37216 12L12.2791 8.67274L25.6745 6.54547V-1.0909H-1.11621V4.9091Z" fill="#EA4335"/>
</g>
<mask id="mask2_104_8901" style="mask-type:luminance" maskUnits="userSpaceOnUse" x="0" y="0" width="24" height="24">
<path d="M23.7209 9.81818H12.2791V14.4545H18.8651C18.2512 17.4 15.6837 19.0909 12.2791 19.0909C8.26047 19.0909 5.02326 15.9273 5.02326 12C5.02326 8.07273 8.26047 4.90909 12.2791 4.90909C14.0093 4.90909 15.5721 5.50909 16.8 6.49091L20.3721 3C18.1953 1.14545 15.4047 0 12.2791 0C5.46977 0 0 5.34545 0 12C0 18.6545 5.46977 24 12.2791 24C18.4186 24 24 19.6364 24 12C24 11.2909 23.8884 10.5273 23.7209 9.81818Z" fill="white"/>
</mask>
<g mask="url(#mask2_104_8901)">
<path d="M-1.11621 19.0909L15.628 6.54547L20.0373 7.09092L25.6745 -1.0909V25.0909H-1.11621V19.0909Z" fill="#34A853"/>
</g>
<mask id="mask3_104_8901" style="mask-type:luminance" maskUnits="userSpaceOnUse" x="0" y="0" width="24" height="24">
<path d="M23.7209 9.81818H12.2791V14.4545H18.8651C18.2512 17.4 15.6837 19.0909 12.2791 19.0909C8.26047 19.0909 5.02326 15.9273 5.02326 12C5.02326 8.07273 8.26047 4.90909 12.2791 4.90909C14.0093 4.90909 15.5721 5.50909 16.8 6.49091L20.3721 3C18.1953 1.14545 15.4047 0 12.2791 0C5.46977 0 0 5.34545 0 12C0 18.6545 5.46977 24 12.2791 24C18.4186 24 24 19.6364 24 12C24 11.2909 23.8884 10.5273 23.7209 9.81818Z" fill="white"/>
</mask>
<g mask="url(#mask3_104_8901)">
<path d="M25.6745 25.0909L8.37221 12L6.13965 10.3636L25.6745 4.90909V25.0909Z" fill="#4285F4"/>
</g>
</svg>
