<svg width="18" height="18" viewBox="0 0 18 18" fill="none" xmlns="http://www.w3.org/2000/svg">
<path d="M4.92062 10.0317L14.6219 7.44399C15.7462 7.14453 16.5598 6.31397 16.2604 5.48905C15.9779 4.74323 14.8705 4.53418 13.8647 4.87884L10.4521 6.04276C10.2204 6.12186 10.0566 6.11621 9.78537 5.98626L5.06187 3.76011C4.89802 3.68101 4.71722 3.66971 4.55336 3.71491L4.16351 3.83922C3.99965 3.89007 3.9488 4.08217 4.09005 4.23472L6.92641 7.25188L5.12402 7.86775L2.42327 6.90723C2.24812 6.85073 2.10121 6.87898 1.94301 7.02588L1.77351 7.17843C1.64356 7.29708 1.63791 7.45529 1.75091 7.57394L3.72845 9.80008C4.0053 10.1052 4.41211 10.1673 4.92062 10.0317ZM2.80748 13.9303H15.0513C15.3564 13.9303 15.605 13.6817 15.605 13.3766C15.605 13.0715 15.3564 12.8229 15.0513 12.8229H2.80748C2.50802 12.8229 2.25377 13.0715 2.25377 13.3766C2.25377 13.6817 2.50802 13.9303 2.80748 13.9303Z" fill="#818181"/>
</svg>
