<svg width="18" height="18" viewBox="0 0 18 18" fill="none" xmlns="http://www.w3.org/2000/svg">
<path d="M3.7115 7.84032L13.4014 10.4507C14.5202 10.7558 15.6445 10.4337 15.8027 9.58056C15.927 8.78954 15.0739 8.05503 14.0286 7.85162L10.486 7.15101C10.2487 7.10581 10.1131 7.01541 9.94357 6.7781L6.96596 2.48402C6.86426 2.33712 6.72301 2.24106 6.5535 2.19586L6.14669 2.09416C5.97719 2.05461 5.84724 2.20716 5.89244 2.41057L6.83601 6.4278L4.96582 6.06054L3.10693 3.8909C2.98828 3.74964 2.85268 3.71009 2.63232 3.74964L2.41197 3.79484C2.24247 3.8344 2.15772 3.97 2.19162 4.1282L2.79053 7.04931C2.87528 7.44482 3.19734 7.70472 3.7115 7.84032ZM2.87528 13.9311H15.1191C15.4242 13.9311 15.6728 13.6825 15.6728 13.3774C15.6728 13.0723 15.4242 12.8237 15.1191 12.8237H2.87528C2.57017 12.8237 2.32157 13.0723 2.32157 13.3774C2.32157 13.6825 2.57017 13.9311 2.87528 13.9311Z" fill="#828282"/>
</svg>
