<svg width="24" height="24" viewBox="0 0 24 24" fill="none" xmlns="http://www.w3.org/2000/svg">
<path d="M7.71352 18.0917H7.80392L6.17669 20.7058C5.96575 21.0448 6.14655 21.4516 6.5609 21.4516H7.03551C7.27658 21.4516 7.41218 21.3687 7.54025 21.1653L7.96212 20.4798H16.0003L16.4222 21.1653C16.5503 21.3687 16.6934 21.4516 16.9345 21.4516H17.3714C17.7858 21.4516 17.9817 21.0372 17.7557 20.6832L16.1586 18.0917H16.2791C17.8009 18.0917 18.6823 17.0822 18.6823 15.6131V10.0534C18.6823 7.99679 18.4487 6.26409 18.1625 5.05873C17.8159 3.46163 16.8742 2.44461 15.2771 2.24874C14.7121 2.18094 13.4842 2.08301 12.0001 2.08301C10.516 2.08301 9.28048 2.18094 8.72301 2.24874C7.12591 2.44461 6.18422 3.46163 5.83015 5.05873C5.54388 6.26409 5.31787 7.99679 5.31787 10.0534V15.6131C5.31787 17.0822 6.19176 18.0917 7.71352 18.0917ZM10.0414 4.70466C9.72496 4.70466 9.51402 4.48619 9.51402 4.16978C9.51402 3.85338 9.72496 3.64244 10.0414 3.64244H13.9588C14.2752 3.64244 14.4861 3.85338 14.4861 4.16978C14.4861 4.48619 14.2752 4.70466 13.9588 4.70466H10.0414ZM12.0001 12.9538C10.1996 12.9388 8.62507 12.8634 7.81899 12.7655C7.32931 12.7052 7.11837 12.3888 7.11837 11.9293V10.0986C7.11837 8.59947 7.28411 7.32631 7.39711 6.8065C7.47245 6.44489 7.70599 6.18122 8.06759 6.13602C8.91134 6.03055 10.0112 5.97782 12.0001 5.97028C13.9738 5.96275 15.0813 6.03055 15.9099 6.13602C16.2791 6.18122 16.5202 6.44489 16.5955 6.8065C16.7085 7.32631 16.8742 8.59947 16.8742 10.0986V11.9293C16.8742 12.3963 16.6633 12.7128 16.1812 12.7655C15.0361 12.8936 13.4691 12.9538 12.0001 12.9538ZM15.5785 16.3891C14.9758 16.3891 14.5163 15.9295 14.5163 15.3269C14.5163 14.7242 14.9758 14.2646 15.5785 14.2646C16.1812 14.2646 16.6407 14.7242 16.6407 15.3269C16.6407 15.9295 16.1736 16.3891 15.5785 16.3891ZM8.4066 16.3816C7.80392 16.3816 7.35944 15.9371 7.35944 15.3269C7.35944 14.7167 7.80392 14.2722 8.4066 14.2722C9.01681 14.2722 9.46882 14.7167 9.46882 15.3269C9.46882 15.9371 9.00928 16.3816 8.4066 16.3816ZM8.74561 19.2217L9.44622 18.0917H14.5163L15.2169 19.2217H8.74561Z" fill="#B6B2AF"/>
</svg>
